# xmcd
#
# Track frame offsets:
#	150
#	39397
#	66074
#	83040
#	114241
#	153492
#	178093
#	197959
#	216349
#	244623
#
# Disc length: 3632 seconds
#
# Revision: 0
# Processed by: cddbd v1.5.2PL0 Copyright (c) Steve Scherf et al.
# Submitted via: audiograbber 1.83.01
#
DISCID=840e2e0a
DTITLE=Sonicmaze - ...without walls
DYEAR=2011
DGENRE=Blues
TTITLE0=Earth Song
TTITLE1=Mother
TTITLE2=Twilight
TTITLE3=Scars
TTITLE4=Caravane
TTITLE5=The Wolf
TTITLE6=Religion
TTITLE7=Palestine
TTITLE8=Death Dance
TTITLE9=Time
EXTD=
EXTT0=
EXTT1=
EXTT2=
EXTT3=
EXTT4=
EXTT5=
EXTT6=
EXTT7=
EXTT8=
EXTT9=
PLAYORDER=
